<?xml version="1.0" encoding="UTF-8" standalone="no"?>
<!DOCTYPE svg PUBLIC "-//W3C//DTD SVG 1.1//EN"
 "http://www.w3.org/Graphics/SVG/1.1/DTD/svg11.dtd">
<!-- Generated by graphviz version 2.38.0 (20140413.2041)
 -->
<!-- Title: %3 Pages: 1 -->
<svg width="845pt" height="495pt"
 viewBox="0.00 0.00 845.00 495.00" xmlns="http://www.w3.org/2000/svg" xmlns:xlink="http://www.w3.org/1999/xlink">
<g id="graph0" class="graph" transform="scale(1 1) rotate(0) translate(4 491)">
<title>%3</title>
<polygon fill="#333333" stroke="none" points="-4,4 -4,-491 841,-491 841,4 -4,4"/>
<text text-anchor="middle" x="418.5" y="-9.2" font-family="Times,serif" font-size="16.00" fill="white">Abiotrophiadefectiva_HOT_389_Strain_ATCC49176_GB_D50541_Named_G_5</text>
<!-- R1 -->
<g id="node1" class="node"><title>R1</title>
<ellipse fill="#006699" stroke="white" cx="90" cy="-44" rx="27" ry="18"/>
<text text-anchor="middle" x="90" y="-40.3" font-family="Helvetica,sans-Serif" font-size="14.00" fill="white">R1</text>
</g>
<!-- R4 -->
<g id="node4" class="node"><title>R4</title>
<ellipse fill="#006699" stroke="white" cx="27" cy="-129" rx="27" ry="18"/>
<text text-anchor="middle" x="27" y="-125.3" font-family="Helvetica,sans-Serif" font-size="14.00" fill="white">R4</text>
</g>
<!-- R1&#45;&#45;R4 -->
<g id="edge1" class="edge"><title>R1&#45;&#45;R4</title>
<path fill="none" stroke="green" stroke-dasharray="5,2" d="M66.0765,-52.6459C53.102,-58.1112 38.102,-66.8612 30,-80 24.3904,-89.0969 23.6404,-101.097 24.2928,-110.823"/>
<text text-anchor="middle" x="53" y="-83.4" font-family="Courier,monospace" font-size="12.00" fill="white">0.3503</text>
</g>
<!-- R5 -->
<g id="node5" class="node"><title>R5</title>
<ellipse fill="#006699" stroke="white" cx="285" cy="-129" rx="27" ry="18"/>
<text text-anchor="middle" x="285" y="-125.3" font-family="Helvetica,sans-Serif" font-size="14.00" fill="white">R5</text>
</g>
<!-- R1&#45;&#45;R5 -->
<g id="edge2" class="edge"><title>R1&#45;&#45;R5</title>
<path fill="none" stroke="green" stroke-dasharray="5,2" d="M112.369,-54.5212C149.984,-70.5316 225.453,-102.654 262.892,-118.59"/>
<text text-anchor="middle" x="223" y="-83.4" font-family="Courier,monospace" font-size="12.00" fill="white">0.3546</text>
</g>
<!-- R7 -->
<g id="node7" class="node"><title>R7</title>
<ellipse fill="#006699" stroke="white" cx="184" cy="-214" rx="27" ry="18"/>
<text text-anchor="middle" x="184" y="-210.3" font-family="Helvetica,sans-Serif" font-size="14.00" fill="white">R7</text>
</g>
<!-- R1&#45;&#45;R7 -->
<g id="edge3" class="edge"><title>R1&#45;&#45;R7</title>
<path fill="none" stroke="green" stroke-dasharray="5,2" d="M91.5159,-62.3239C93.9991,-83.532 100.339,-119.958 116,-147 128.698,-168.924 150.726,-188.355 166.264,-200.358"/>
<text text-anchor="middle" x="139" y="-125.9" font-family="Courier,monospace" font-size="12.00" fill="white">0.5704</text>
</g>
<!-- R2 -->
<g id="node2" class="node"><title>R2</title>
<ellipse fill="#006699" stroke="white" cx="476" cy="-44" rx="27" ry="18"/>
<text text-anchor="middle" x="476" y="-40.3" font-family="Helvetica,sans-Serif" font-size="14.00" fill="white">R2</text>
</g>
<!-- R3 -->
<g id="node3" class="node"><title>R3</title>
<ellipse fill="#006699" stroke="white" cx="616" cy="-129" rx="27" ry="18"/>
<text text-anchor="middle" x="616" y="-125.3" font-family="Helvetica,sans-Serif" font-size="14.00" fill="white">R3</text>
</g>
<!-- R2&#45;&#45;R3 -->
<g id="edge4" class="edge"><title>R2&#45;&#45;R3</title>
<path fill="none" stroke="green" stroke-dasharray="5,2" d="M495.763,-56.4464C507.48,-63.2533 522.611,-72.0787 536,-80 556.771,-92.2887 580.464,-106.533 596.641,-116.294"/>
<text text-anchor="middle" x="578" y="-83.4" font-family="Courier,monospace" font-size="12.00" fill="white">0.5277</text>
</g>
<!-- R2&#45;&#45;R5 -->
<g id="edge5" class="edge"><title>R2&#45;&#45;R5</title>
<path fill="none" stroke="orange" d="M449.155,-46.377C403.416,-49.3066 313.255,-57.8077 292,-80 284.311,-88.0282 282.69,-100.539 282.924,-110.775"/>
<text text-anchor="middle" x="315" y="-83.4" font-family="Courier,monospace" font-size="12.00" fill="white">0.7092</text>
</g>
<!-- R6 -->
<g id="node6" class="node"><title>R6</title>
<ellipse fill="#006699" stroke="white" cx="531" cy="-214" rx="27" ry="18"/>
<text text-anchor="middle" x="531" y="-210.3" font-family="Helvetica,sans-Serif" font-size="14.00" fill="white">R6</text>
</g>
<!-- R2&#45;&#45;R6 -->
<g id="edge6" class="edge"><title>R2&#45;&#45;R6</title>
<path fill="none" stroke="orange" d="M482.973,-61.6295C485.31,-67.4067 487.863,-73.9531 490,-80 504.575,-121.234 519.036,-170.646 526.258,-196.06"/>
<text text-anchor="middle" x="534" y="-125.9" font-family="Courier,monospace" font-size="12.00" fill="white">0.7591</text>
</g>
<!-- R2&#45;&#45;R7 -->
<g id="edge7" class="edge"><title>R2&#45;&#45;R7</title>
<path fill="none" stroke="green" stroke-dasharray="5,2" d="M449.323,-47.4469C386.926,-53.7666 234.363,-72.8707 203,-111 183.09,-135.206 181.467,-173.628 182.471,-195.759"/>
<text text-anchor="middle" x="226" y="-125.9" font-family="Courier,monospace" font-size="12.00" fill="white">0.5838</text>
</g>
<!-- R8 -->
<g id="node8" class="node"><title>R8</title>
<ellipse fill="#006699" stroke="white" cx="396" cy="-299" rx="27" ry="18"/>
<text text-anchor="middle" x="396" y="-295.3" font-family="Helvetica,sans-Serif" font-size="14.00" fill="white">R8</text>
</g>
<!-- R2&#45;&#45;R8 -->
<g id="edge8" class="edge"><title>R2&#45;&#45;R8</title>
<path fill="none" stroke="red" d="M455.931,-56.6164C426.205,-75.1333 371.657,-114.466 350,-165 347.724,-170.311 347.083,-173.013 350,-178 358.238,-192.086 372.821,-182.508 382,-196 399.394,-221.567 399.672,-259.16 398.025,-280.849"/>
<text text-anchor="middle" x="373" y="-168.4" font-family="Courier,monospace" font-size="12.00" fill="white">0.8992</text>
</g>
<!-- R9 -->
<g id="node9" class="node"><title>R9</title>
<ellipse fill="#006699" stroke="white" cx="503" cy="-384" rx="27" ry="18"/>
<text text-anchor="middle" x="503" y="-380.3" font-family="Helvetica,sans-Serif" font-size="14.00" fill="white">R9</text>
</g>
<!-- R2&#45;&#45;R9 -->
<g id="edge9" class="edge"><title>R2&#45;&#45;R9</title>
<path fill="none" stroke="green" stroke-dasharray="5,2" d="M474.483,-62.0509C471.81,-94.966 466.994,-169.528 472,-232 473.115,-245.911 474.41,-249.287 477,-263 483.962,-299.866 493.64,-342.76 499.009,-365.969"/>
<text text-anchor="middle" x="483.5" y="-210.9" font-family="Courier,monospace" font-size="12.00" fill="white">0.5</text>
</g>
<!-- R10 -->
<g id="node10" class="node"><title>R10</title>
<ellipse fill="#006699" stroke="white" cx="503" cy="-469" rx="27" ry="18"/>
<text text-anchor="middle" x="503" y="-465.3" font-family="Helvetica,sans-Serif" font-size="14.00" fill="white">R10</text>
</g>
<!-- R2&#45;&#45;R10 -->
<g id="edge10" class="edge"><title>R2&#45;&#45;R10</title>
<path fill="none" stroke="red" d="M502.857,-46.3246C579.033,-50.8079 791,-68.6182 791,-128 791,-128 791,-128 791,-385 791,-439.051 601.332,-460.036 529.836,-466.026"/>
<text text-anchor="middle" x="814" y="-253.4" font-family="Courier,monospace" font-size="12.00" fill="white">0.8905</text>
</g>
<!-- R3&#45;&#45;R6 -->
<g id="edge11" class="edge"><title>R3&#45;&#45;R6</title>
<path fill="none" stroke="orange" d="M593.698,-139.26C581.416,-145.214 566.567,-153.914 556,-165 547.572,-173.841 541.257,-186.081 537.082,-195.988"/>
<text text-anchor="middle" x="579" y="-168.4" font-family="Courier,monospace" font-size="12.00" fill="white">0.7518</text>
</g>
<!-- R3&#45;&#45;R8 -->
<g id="edge12" class="edge"><title>R3&#45;&#45;R8</title>
<path fill="none" stroke="green" stroke-dasharray="5,2" d="M612.359,-146.869C610.017,-156.272 606.554,-168.056 602,-178 590.092,-204.003 587.041,-211.596 567,-232 527.085,-272.637 459.386,-288.714 422.271,-294.708"/>
<text text-anchor="middle" x="616" y="-210.9" font-family="Courier,monospace" font-size="12.00" fill="white">0.5971</text>
</g>
<!-- R3&#45;&#45;R9 -->
<g id="edge13" class="edge"><title>R3&#45;&#45;R9</title>
<path fill="none" stroke="red" d="M626.178,-145.854C637.873,-166.173 654.109,-202.32 643,-232 619.189,-295.613 553.605,-347.978 521.37,-370.75"/>
<text text-anchor="middle" x="657" y="-253.4" font-family="Courier,monospace" font-size="12.00" fill="white">0.8333</text>
</g>
<!-- R3&#45;&#45;R10 -->
<g id="edge14" class="edge"><title>R3&#45;&#45;R10</title>
<path fill="none" stroke="green" stroke-dasharray="5,2" d="M639.936,-137.741C669.803,-149.08 717,-173.282 717,-213 717,-213 717,-213 717,-385 717,-424.949 585.731,-453.234 528.813,-463.621"/>
<text text-anchor="middle" x="740" y="-295.9" font-family="Courier,monospace" font-size="12.00" fill="white">0.3795</text>
</g>
<!-- R5&#45;&#45;R6 -->
<g id="edge15" class="edge"><title>R5&#45;&#45;R6</title>
<path fill="none" stroke="green" stroke-dasharray="5,2" d="M309.251,-136.964C347.889,-148.247 425.631,-171.72 490,-196 496.2,-198.339 502.862,-201.025 508.975,-203.561"/>
<text text-anchor="middle" x="457" y="-168.4" font-family="Courier,monospace" font-size="12.00" fill="white">0.4306</text>
</g>
<!-- R5&#45;&#45;R7 -->
<g id="edge16" class="edge"><title>R5&#45;&#45;R7</title>
<path fill="none" stroke="orange" d="M261.939,-138.796C248.189,-144.791 230.948,-153.691 218,-165 207.694,-174.002 198.861,-186.731 192.783,-196.82"/>
<text text-anchor="middle" x="241" y="-168.4" font-family="Courier,monospace" font-size="12.00" fill="white">0.7801</text>
</g>
<!-- R5&#45;&#45;R8 -->
<g id="edge17" class="edge"><title>R5&#45;&#45;R8</title>
<path fill="none" stroke="green" stroke-dasharray="5,2" d="M291.652,-146.665C300.346,-167.521 316.751,-203.909 336,-232 349.305,-251.417 367.962,-271.044 380.926,-283.786"/>
<text text-anchor="middle" x="359" y="-210.9" font-family="Courier,monospace" font-size="12.00" fill="white">0.5971</text>
</g>
<!-- R5&#45;&#45;R10 -->
<g id="edge18" class="edge"><title>R5&#45;&#45;R10</title>
<path fill="none" stroke="red" d="M283.003,-147.024C280.351,-171.132 276,-216.617 276,-255.5 276,-255.5 276,-255.5 276,-385 276,-427.381 417.335,-454.557 476.96,-464.136"/>
<text text-anchor="middle" x="299" y="-295.9" font-family="Courier,monospace" font-size="12.00" fill="white">0.8248</text>
</g>
<!-- R6&#45;&#45;R8 -->
<g id="edge19" class="edge"><title>R6&#45;&#45;R8</title>
<path fill="none" stroke="red" d="M511.658,-226.892C485.994,-242.67 440.952,-270.363 415.306,-286.13"/>
<text text-anchor="middle" x="494" y="-253.4" font-family="Courier,monospace" font-size="12.00" fill="white">0.8248</text>
</g>
<!-- R6&#45;&#45;R9 -->
<g id="edge20" class="edge"><title>R6&#45;&#45;R9</title>
<path fill="none" stroke="orange" d="M528.161,-232.033C522.795,-264.233 511.219,-333.687 505.846,-365.922"/>
<text text-anchor="middle" x="542" y="-295.9" font-family="Courier,monospace" font-size="12.00" fill="white">0.7518</text>
</g>
<!-- R6&#45;&#45;R10 -->
<g id="edge21" class="edge"><title>R6&#45;&#45;R10</title>
<path fill="none" stroke="green" stroke-dasharray="5,2" d="M542.885,-230.235C552.036,-242.99 563.947,-262.095 569,-281 573.132,-296.457 570.096,-301.038 569,-317 565.436,-368.921 580.139,-388.593 553,-433 546.369,-443.849 534.969,-452.218 524.727,-458.048"/>
<text text-anchor="middle" x="591" y="-338.4" font-family="Courier,monospace" font-size="12.00" fill="white">0.5985</text>
</g>
<!-- R7&#45;&#45;R8 -->
<g id="edge22" class="edge"><title>R7&#45;&#45;R8</title>
<path fill="none" stroke="green" stroke-dasharray="5,2" d="M201.458,-227.842C216.749,-238.566 239.919,-253.571 262,-263 272.034,-267.284 335.196,-283.087 371.109,-291.921"/>
<text text-anchor="middle" x="285" y="-253.4" font-family="Courier,monospace" font-size="12.00" fill="white">0.4892</text>
</g>
<!-- R7&#45;&#45;R10 -->
<g id="edge23" class="edge"><title>R7&#45;&#45;R10</title>
<path fill="none" stroke="orange" d="M184.017,-232.205C185.108,-274.956 194.599,-385.943 262,-433 296.147,-456.84 420.454,-464.715 475.939,-467.079"/>
<text text-anchor="middle" x="226" y="-338.4" font-family="Courier,monospace" font-size="12.00" fill="white">0.7226</text>
</g>
<!-- R8&#45;&#45;R9 -->
<g id="edge24" class="edge"><title>R8&#45;&#45;R9</title>
<path fill="none" stroke="green" stroke-dasharray="5,2" d="M394.357,-317.299C394.339,-327.307 396.036,-339.553 403,-348 420.902,-369.714 453.125,-377.975 476.156,-381.107"/>
<text text-anchor="middle" x="426" y="-338.4" font-family="Courier,monospace" font-size="12.00" fill="white">0.5971</text>
</g>
<!-- R8&#45;&#45;R10 -->
<g id="edge25" class="edge"><title>R8&#45;&#45;R10</title>
<path fill="none" stroke="orange" d="M391.889,-317.104C390.33,-326.368 389.471,-337.944 392,-348 398.645,-374.419 403.597,-381.041 421,-402 439.328,-424.074 466.017,-443.896 483.918,-455.926"/>
<text text-anchor="middle" x="444" y="-380.9" font-family="Courier,monospace" font-size="12.00" fill="white">0.7591</text>
</g>
<!-- R9&#45;&#45;R10 -->
<g id="edge26" class="edge"><title>R9&#45;&#45;R10</title>
<path fill="none" stroke="green" stroke-dasharray="5,2" d="M503,-402.198C503,-416.443 503,-436.586 503,-450.824"/>
<text text-anchor="middle" x="526" y="-423.4" font-family="Courier,monospace" font-size="12.00" fill="white">0.3795</text>
</g>
</g>
</svg>
